HIERARCHY
ROOT hip
{
	OFFSET 0.000000 0.000000 0.000000
	CHANNELS 6 Xposition Yposition Zposition Xrotation Zrotation Yrotation 
	JOINT abdomen
	{
		OFFSET 0.000000 3.422050 0.000000
		CHANNELS 3 Xrotation Zrotation Yrotation 
		JOINT chest
		{
			OFFSET 0.000000 8.486693 -0.684411
			CHANNELS 3 Xrotation Zrotation Yrotation 
			JOINT neck
			{
				OFFSET 0.000000 10.266162 -0.273764
				CHANNELS 3 Xrotation Zrotation Yrotation 
				JOINT head
				{
					OFFSET 0.000000 3.148285 0.000000
					CHANNELS 3 Xrotation Zrotation Yrotation 
					End Site
					{
						OFFSET 0.000000 3.148289 0.000000
					}
				}
			}
			JOINT lCollar
			{
				OFFSET 3.422053 6.707223 -0.821293
				CHANNELS 3 Yrotation Zrotation Xrotation 
				JOINT lShldr
				{
					OFFSET 3.285171 0.000000 0.000000
					CHANNELS 3 Zrotation Yrotation Xrotation 
					JOINT lForeArm
					{
						OFFSET 10.129278 0.000000 0.000000
						CHANNELS 3 Yrotation Zrotation Xrotation 
						JOINT lHand
						{
							OFFSET 8.486692 0.000000 0.000000
							CHANNELS 3 Zrotation Yrotation Xrotation 
							End Site
							{
								OFFSET 4.106464 0.000000 0.000000
							}
						}
					}
				}
			}
			JOINT rCollar
			{
				OFFSET -3.558935 6.707223 -0.821293
				CHANNELS 3 Yrotation Zrotation Xrotation 
				JOINT rShldr
				{
					OFFSET -3.148289 0.000000 0.000000
					CHANNELS 3 Zrotation Yrotation Xrotation 
					JOINT rForeArm
					{
						OFFSET -10.266159 0.000000 0.000000
						CHANNELS 3 Yrotation Zrotation Xrotation 
						JOINT rHand
						{
							OFFSET -8.349810 0.000000 0.000000
							CHANNELS 3 Zrotation Yrotation Xrotation 
							End Site
							{
								OFFSET -4.106464 0.000000 0.000000
							}
						}
					}
				}
			}
		}
	}
	JOINT lThigh
	{
		OFFSET 5.338403 -1.642589 1.368821
		CHANNELS 3 Xrotation Zrotation Yrotation 
		JOINT lShin
		{
			OFFSET -2.053232 -20.121670 0.000000
			CHANNELS 3 Xrotation Zrotation Yrotation 
			JOINT lFoot
			{
				OFFSET 0.000000 -19.300380 -1.231939
				CHANNELS 3 Xrotation Yrotation Zrotation 
				End Site
				{
					OFFSET 0.000000 -2.463878 4.653993
				}
			}
		}
	}
	JOINT rThigh
	{
		OFFSET -5.338403 -1.642589 1.368821
		CHANNELS 3 Xrotation Zrotation Yrotation 
		JOINT rShin
		{
			OFFSET 2.053232 -20.121670 0.000000
			CHANNELS 3 Xrotation Zrotation Yrotation 
			JOINT rFoot
			{
				OFFSET 0.000000 -19.300380 -1.231939
				CHANNELS 3 Xrotation Yrotation Zrotation 
				End Site
				{
					OFFSET 0.000000 -2.463878 4.653993
				}
			}
		}
	}
}
MOTION
Frames: 15
Frame Time: 0.033264
0.000000 43.528500 0.000000 0.000000 0.000000 0.000000 0.000000 0.000000 0.000000 0.000000 0.000000 0.000000 0.000000 0.000000 0.000000 0.000000 0.000000 0.000000 0.000000 0.000000 0.000000 0.000000 0.000000 0.000000 0.000000 0.000000 0.000000 0.000000 0.000000 0.000000 0.000000 0.000000 0.000000 0.000000 0.000000 0.000000 0.000000 0.000000 0.000000 0.000000 0.000000 0.000000 0.000000 0.000000 0.000000 0.000000 0.000000 0.000000 0.000000 0.000000 0.000000 0.000000 0.000000 0.000000 0.000000 0.000000 0.000000 0.000000 0.000000 0.000000 
0.327403 16.780201 7.410224 -11.000823 0.000000 -180.000000 10.247938 0.000000 0.000000 -4.657393 -0.154319 -0.222982 0.000000 0.000000 0.000000 0.000000 0.000000 0.000000 -26.354986 -18.633869 -20.717535 -30.566641 -36.601849 10.664792 6.585727 -40.295357 68.072121 73.656219 -1.029906 -15.295804 25.034082 19.116266 -20.759462 29.239155 43.244926 10.265084 -6.843760 43.994808 68.142212 -74.073280 0.460121 -13.256761 -122.420639 36.399059 -0.234264 105.886269 15.581644 -2.828253 -4.500649 6.260651 -8.284095 -122.434364 -36.413387 0.226703 105.896591 -15.606622 2.823478 -4.506427 -6.281954 8.279523 
0.327403 16.659050 7.357158 -9.782342 0.000000 -180.000000 11.682064 0.000000 0.000000 -3.060691 -0.154306 -0.223074 0.078009 -0.034010 -0.042102 0.068768 -0.028573 0.002968 -26.135143 -16.934282 -22.400469 -30.566641 -36.601849 10.664792 7.570854 -43.240238 69.135719 73.477875 -0.786863 -13.738165 25.072155 17.825630 -22.397339 29.239155 43.244926 10.265084 -6.649588 45.968227 68.046944 -74.144081 0.220997 -12.076688 -121.876205 37.078613 -0.284146 106.269302 15.607952 -2.726533 -4.596471 5.617063 -7.700403 -121.889046 -37.093132 0.274993 106.278572 -15.633858 2.720834 -4.602897 -5.638756 7.695590 
0.327403 16.537899 7.304091 -8.564201 0.000000 -180.000000 13.119836 0.000000 0.000000 -1.458941 -0.154291 -0.223167 0.156052 -0.067966 -0.084254 0.137540 -0.057151 0.005901 -25.863590 -15.230402 -24.086891 -30.566645 -36.601852 10.664792 8.688548 -46.176392 70.330315 73.305687 -0.538284 -12.176528 25.071354 16.527500 -24.031708 29.239159 43.244930 10.265087 -6.442253 47.950428 67.937592 -74.219894 -0.017043 -10.894209 -121.327003 37.759174 -0.326348 106.652466 15.633605 -2.624603 -4.685685 4.971944 -7.117862 -121.338951 -37.773884 0.315577 106.660706 -15.660438 2.617975 -4.692761 -4.994021 7.112818 
0.327403 16.416748 7.251025 -7.344119 0.000000 -180.000000 14.560811 0.000000 0.000000 0.147252 -0.154272 -0.223259 0.234129 -0.101869 -0.126458 0.206315 -0.085735 0.008801 -25.540680 -13.525293 -25.778389 -30.566645 -36.601852 10.664792 9.964822 -49.096294 71.681976 73.139900 -0.284412 -10.611439 25.031914 15.223749 -25.663307 29.239159 43.244934 10.265085 -6.219723 49.940254 67.812149 -74.300766 -0.253838 -9.709553 -120.772842 38.440624 -0.360643 107.035797 15.658607 -2.522469 -4.768299 4.325435 -6.536396 -120.783867 -38.455498 0.348213 107.042999 -15.686356 2.514902 -4.776026 -4.347890 6.531129 
0.327403 16.295597 7.197959 -6.122367 0.000000 -180.000000 16.004545 0.000000 0.000000 1.757272 -0.154251 -0.223352 0.312240 -0.135719 -0.168714 0.275094 -0.114324 0.011666 -25.166750 -11.822100 -27.476482 -30.566637 -36.601849 10.664791 11.432623 -51.991535 73.223709 72.980751 -0.025495 -9.043441 24.954090 13.916273 -27.292843 29.239155 43.244926 10.265084 -5.979560 51.936455 67.668152 -74.386620 -0.489225 -8.522931 -120.213448 39.122780 -0.386783 107.419281 15.682958 -2.420140 -4.844318 3.677675 -5.955919 -120.223503 -39.137810 0.372664 107.425423 -15.711614 2.411627 -4.852697 -3.700503 5.950442 
0.327403 16.174446 7.144892 -4.899221 0.000000 -180.000000 17.450586 0.000000 0.000000 3.370496 -0.154228 -0.223443 0.390386 -0.169515 -0.211020 0.343876 -0.142919 0.014497 -24.742147 -10.124013 -29.182611 -30.566641 -36.601849 10.664792 13.134120 -54.852486 74.997696 72.828461 0.238196 -7.473091 24.838161 12.607003 -28.921005 29.239153 43.244923 10.265083 -5.718780 53.937763 67.502647 -74.477440 -0.723045 -7.334571 -119.648643 39.805542 -0.404521 107.802887 15.706645 -2.317618 -4.913752 3.028807 -5.376358 -119.657677 -39.820709 0.388677 107.807983 -15.736213 2.308157 -4.922782 -3.051999 5.370677 
0.327403 16.053295 7.091826 -3.674956 0.000000 -180.000000 18.898474 0.000000 0.000000 4.986291 -0.154201 -0.223534 0.468565 -0.203256 -0.253377 0.412662 -0.171519 0.017294 -24.267237 -8.434271 -30.898130 -30.566641 -36.601849 10.664792 13.961717 -57.783928 75.903976 72.683205 0.506385 -5.900937 24.684425 11.297874 -30.548470 29.239155 43.244926 10.265084 -5.433733 55.942944 67.312042 -74.573181 -0.955138 -6.144702 -119.078110 40.488724 -0.413589 108.186592 15.729673 -2.214916 -4.976603 2.378971 -4.797626 -119.086082 -40.504025 0.395978 108.190681 -15.760153 2.204497 -4.986286 -2.402523 4.791752 
0.327403 15.932144 7.038760 -2.449851 0.000000 -180.000000 20.347757 0.000000 0.000000 6.604022 -0.154173 -0.223625 0.546778 -0.236944 -0.295785 0.481452 -0.200124 0.020057 -23.742414 -6.756145 -32.624317 -30.566641 -36.601849 10.664792 14.960409 -60.712963 76.980362 72.545227 0.778780 -4.327538 24.493229 9.990854 -32.175877 29.239155 43.244926 10.265084 -5.119856 57.950596 67.091698 -74.673805 -1.185348 -4.953554 -118.501572 41.172176 -0.413712 108.570404 15.752039 -2.112038 -5.032876 1.728310 -4.219643 -118.508453 -41.187603 0.394296 108.573471 -15.783417 2.100653 -5.043213 -1.752213 4.213585 
0.327403 15.810993 6.985693 -1.224187 0.000000 -180.000000 21.797966 0.000000 0.000000 8.223044 -0.154141 -0.223714 0.625025 -0.270577 -0.338244 0.550244 -0.228735 0.022786 -23.168089 -5.092907 -34.362312 -30.566641 -36.601849 10.664792 16.185097 -63.632790 78.281738 72.414650 1.055078 -2.753441 24.264942 8.687908 -33.803852 29.239155 43.244926 10.265084 -4.771408 59.959396 66.835953 -74.779243 -1.413518 -3.761358 -117.918816 41.855785 -0.404597 108.954361 15.773746 -2.008990 -5.082578 1.076964 -3.642326 -117.924553 -41.871319 0.383342 108.956390 -15.806021 1.996637 -5.093570 -1.101213 3.636095 
0.327403 15.689842 6.932627 0.001758 -0.000000 -180.000000 23.248640 0.000000 0.000000 9.842715 -0.154107 -0.223803 0.703305 -0.304156 -0.380753 0.619040 -0.257351 0.025480 -22.544743 -3.447829 -36.113182 -30.566645 -36.601856 10.664793 17.716509 -66.535278 79.888885 72.291656 1.334968 -1.179201 23.999954 7.390994 -35.432957 29.239155 43.244930 10.265086 -4.381036 61.967949 66.537453 -74.889465 -1.639497 -2.568349 -117.329483 42.539360 -0.385948 109.338356 15.794784 -1.905781 -5.125711 0.425075 -3.065594 -117.334030 -42.554977 0.362806 109.339394 -15.827956 1.892451 -5.137360 -0.449663 3.059200 
0.327403 15.568691 6.879561 1.227703 -0.000000 -180.000000 24.699316 0.000000 0.000000 11.462386 -0.154071 -0.223891 0.781619 -0.337681 -0.423313 0.687840 -0.285971 0.028141 -21.872890 -1.824153 -37.877834 -30.566641 -36.601849 10.664791 19.677916 -69.410156 81.925125 72.176376 1.618130 0.394635 23.698702 6.102067 -37.063736 29.239153 43.244923 10.265084 -3.939209 63.974751 66.186646 -75.004364 -1.863131 -1.374763 -116.733276 43.222767 -0.357441 109.722466 15.815160 -1.802416 -5.162279 -0.227215 -2.489364 -116.736595 -43.238457 0.332370 109.722466 -15.849216 1.788102 -5.174586 0.202294 2.482816 
0.327402 15.447540 6.826495 2.453366 -0.000000 -180.000000 26.149525 0.000000 0.000000 13.081405 -0.154032 -0.223977 0.859967 -0.371151 -0.465923 0.756642 -0.314597 0.030767 -21.153133 -0.225082 -39.657070 -30.566641 -36.601849 10.664791 20.101881 -72.325485 82.426178 72.068977 1.904237 1.967519 23.361658 4.823066 -38.696667 29.239155 43.244926 10.265084 -3.433260 65.978340 65.770935 -75.123894 -2.084275 -0.180842 -116.129883 43.905823 -0.318750 110.106621 15.834863 -1.698905 -5.192285 -0.879763 -1.913554 -116.131889 -43.921562 0.291699 110.105614 -15.869810 1.683603 -5.205252 0.854518 1.906863 
0.327402 15.326389 6.773428 3.678469 -0.000000 -180.000000 27.598808 0.000000 0.000000 14.699138 -0.153991 -0.224063 0.938348 -0.404566 -0.508584 0.825449 -0.343228 0.033359 -20.386156 1.346248 -41.451534 -30.566641 -36.601849 10.664792 20.708586 -75.244972 83.109520 71.969490 2.192955 3.538911 22.989317 3.555896 -40.332191 29.239155 43.244926 10.265084 -2.846149 67.977005 65.273201 -75.247978 -2.302782 1.013177 -115.518936 44.588375 -0.269524 110.490845 15.853904 -1.595252 -5.215733 -1.532430 -1.338081 -115.519623 -44.604172 0.240444 110.488823 -15.889727 1.578955 -5.229361 1.506866 1.331257 
0.327402 15.205238 6.720362 4.902730 -0.000000 -180.000000 29.046698 0.000000 0.000000 16.314932 -0.153947 -0.224147 1.016762 -0.437926 -0.551295 0.894258 -0.371864 0.035917 -19.572733 2.886782 -43.261723 -30.566641 -36.601849 10.664792 21.632195 -78.163605 84.109314 71.878082 2.483946 5.108278 22.582239 2.302442 -41.970695 29.239155 43.244926 10.265084 -2.154209 69.969131 64.669884 -75.376511 -2.518513 2.207049 -114.900093 45.270275 -0.209387 110.875114 15.872272 -1.491466 -5.232624 -2.185072 -0.762862 -114.899368 -45.286083 0.178235 110.872093 -15.908967 1.474165 -5.246912 2.159196 0.755915 
